<?xml version="1.0" standalone="no"?>
<!DOCTYPE svg PUBLIC "-//W3C//DTD SVG 20010904//EN"
 "http://www.w3.org/TR/2001/REC-SVG-20010904/DTD/svg10.dtd">
<svg version="1.0" xmlns="http://www.w3.org/2000/svg"
 width="192.000000pt" height="192.000000pt" viewBox="0 0 192.000000 192.000000"
 preserveAspectRatio="xMidYMid meet">

<g transform="translate(0.000000,192.000000) scale(0.100000,-0.100000)"
fill="#000000" stroke="none">
<path d="M225 1476 c-43 -16 -57 -32 -53 -63 3 -28 3 -28 78 -27 41 0 94 4
116 7 38 6 45 4 72 -25 22 -22 33 -44 37 -77 3 -25 10 -62 15 -81 l8 -35 2 30
c1 17 4 42 6 57 3 15 -2 40 -10 55 -25 47 -122 142 -152 148 -53 11 -59 13
-74 18 -8 3 -28 0 -45 -7z"/>
<path d="M102 1378 c-16 -30 -19 -70 -7 -74 8 -3 41 58 45 84 3 18 -28 10 -38
-10z"/>
<path d="M1288 1303 c7 -3 16 -2 19 1 4 3 -2 6 -13 5 -11 0 -14 -3 -6 -6z"/>
<path d="M1128 1293 c6 -2 18 -2 25 0 6 3 1 5 -13 5 -14 0 -19 -2 -12 -5z"/>
<path d="M1206 1288 c2 -3 -29 -8 -70 -10 -41 -2 -72 0 -69 5 2 4 0 7 -6 7 -5
0 -12 -6 -14 -12 -4 -10 -6 -10 -6 0 -1 15 -45 16 -72 2 -13 -7 -19 -7 -19 0
0 13 -47 13 -55 0 -3 -5 -1 -10 6 -10 7 0 8 -4 2 -12 -5 -7 -10 -73 -12 -145
l-3 -133 111 0 c105 0 110 -1 117 -22 7 -22 6 -109 -1 -116 -11 -12 -81 -19
-97 -11 -22 12 -37 -15 -21 -39 10 -17 63 -35 63 -22 0 4 16 3 35 -3 42 -12
43 -19 9 -46 -14 -11 -25 -23 -25 -28 0 -4 -8 -16 -16 -26 -12 -13 -14 -20 -5
-29 10 -10 468 -127 500 -128 9 0 12 25 12 91 0 55 -4 88 -10 84 -5 -3 -44 1
-87 9 -43 8 -136 24 -207 37 l-129 23 7 76 c10 117 11 120 60 119 23 -1 31 -4
19 -6 -13 -2 -23 -9 -23 -14 0 -11 -2 -11 40 1 25 8 71 7 160 -2 111 -11 119
-13 75 -19 -27 -3 -52 -3 -55 1 -8 10 -74 11 -90 0 -12 -8 -11 -10 8 -10 37 0
25 -19 -15 -22 l-38 -4 45 -9 c44 -9 44 -9 15 -16 -27 -6 -28 -7 -5 -8 14 -1
32 -6 40 -11 12 -8 11 -10 -7 -10 -31 0 -29 -14 5 -28 21 -9 22 -11 5 -8 -13
2 -21 -1 -20 -8 3 -16 19 -26 45 -26 13 0 22 -6 22 -15 0 -19 17 -19 36 0 19
19 29 19 49 -1 8 -9 22 -13 30 -10 10 3 15 -1 15 -11 0 -12 3 -14 10 -7 6 6
12 44 14 84 3 45 1 68 -5 59 -7 -11 -9 -8 -9 9 0 14 4 21 11 17 7 -5 9 3 7 21
-3 26 -8 30 -48 35 -25 3 -35 7 -23 7 12 1 24 6 27 10 5 8 10 245 6 267 -3 21
-38 -123 -44 -185 -10 -96 -7 -94 -122 -82 l-99 10 80 0 c44 0 87 3 96 6 13 6
16 28 17 134 1 138 -5 209 -18 195 -5 -4 -65 -6 -134 -3 -68 3 -122 2 -120 -2z
m-86 -28 c0 -5 -8 -10 -17 -10 -15 0 -16 2 -3 10 19 12 20 12 20 0z m118 3
c-10 -2 -26 -2 -35 0 -10 3 -2 5 17 5 19 0 27 -2 18 -5z m-284 -19 c4 -9 4
-19 2 -21 -8 -8 -26 8 -26 23 0 19 16 18 24 -2z m186 -16 c0 -4 -4 -8 -9 -8
-5 0 -16 -3 -25 -6 -11 -4 -16 -1 -16 10 0 11 8 15 25 14 14 -1 25 -6 25 -10z
m223 -5 c-13 -2 -35 -2 -50 0 -16 2 -5 4 22 4 28 0 40 -2 28 -4z m-389 -45
c-3 -5 7 -9 23 -9 27 -2 27 -2 3 -7 -24 -4 -24 -5 -5 -13 17 -8 15 -9 -7 -6
-32 5 -35 -1 -11 -18 13 -9 13 -14 3 -20 -9 -6 -11 -4 -5 5 6 10 4 12 -7 7
-23 -8 -27 0 -18 34 5 16 5 29 0 29 -4 0 -10 6 -13 14 -4 11 -1 11 18 2 13 -6
21 -14 19 -18z m493 10 c-3 -8 -6 -5 -6 6 -1 11 2 17 5 13 3 -3 4 -12 1 -19z
m-347 -38 c0 -5 -4 -10 -10 -10 -5 0 -10 5 -10 10 0 6 5 10 10 10 6 0 10 -4
10 -10z m68 -7 c-10 -2 -28 -2 -40 0 -13 2 -5 4 17 4 22 1 32 -1 23 -4z m-187
-46 c-10 -9 -11 -8 -5 6 3 10 9 15 12 12 3 -3 0 -11 -7 -18z m178 -2 c2 -3
-14 -5 -37 -5 -23 0 -42 4 -42 10 0 9 69 5 79 -5z m-193 -38 c1 -11 -3 -12
-21 -3 -18 8 -21 14 -13 24 12 14 30 3 34 -21z m174 -7 c-29 -18 6 -28 120
-33 63 -3 100 -3 81 1 -67 14 -41 42 39 42 44 0 55 -8 63 -42 7 -27 -9 -50
-22 -31 -3 6 -73 13 -154 16 -107 5 -146 3 -141 -5 5 -8 0 -9 -17 -4 -13 4
-53 10 -89 12 -100 8 -93 22 9 20 50 -1 91 2 91 7 0 4 -4 5 -10 2 -5 -3 -10
-2 -10 4 0 5 8 12 18 14 30 8 38 7 22 -3z m73 -17 c-7 -2 -21 -2 -30 0 -10 3
-4 5 12 5 17 0 24 -2 18 -5z m-283 -14 c0 -4 -10 -6 -21 -4 -32 6 -34 13 -4
13 14 0 25 -4 25 -9z m303 -56 c-7 -2 -19 -2 -25 0 -7 3 -2 5 12 5 14 0 19 -2
13 -5z m318 -62 c-8 -5 -20 -7 -28 -4 -21 8 -15 13 15 13 20 0 23 -3 13 -9z
m-155 -11 c9 0 13 -4 10 -9 -7 -11 -56 -2 -56 11 0 6 7 7 16 4 9 -3 22 -6 30
-6z m79 -20 c19 -8 19 -9 -2 -9 -12 -1 -25 4 -28 9 -7 12 2 12 30 0z m-150
-249 c3 -5 -3 -11 -12 -13 -27 -6 -64 3 -57 13 7 12 61 12 69 0z m168 -68 c-7
-2 -19 -2 -25 0 -7 3 -2 5 12 5 14 0 19 -2 13 -5z"/>
<path d="M186 1262 c-7 -12 27 -22 72 -22 23 0 32 4 30 13 -5 14 -94 22 -102
9z"/>
<path d="M360 1251 c0 -6 4 -12 10 -16 5 -3 7 -11 4 -18 -3 -8 6 -13 22 -15
22 -2 25 1 21 18 -6 23 21 28 41 8 7 -7 12 -8 12 -2 0 21 -26 34 -67 34 -24 0
-43 -4 -43 -9z"/>
<path d="M747 1233 c-19 -18 -5 -42 26 -48 34 -7 34 -7 29 -56 -3 -32 -1 -49
7 -49 7 0 11 20 11 50 0 49 1 50 30 50 27 0 30 3 30 30 l0 30 -63 0 c-35 0
-67 -3 -70 -7z"/>
<path d="M192 1221 c-10 -6 -7 -10 14 -15 18 -5 30 -3 36 6 6 10 10 10 17 -2
11 -16 27 -7 16 9 -7 13 -64 14 -83 2z"/>
<path d="M663 1140 c0 -25 2 -35 4 -22 2 12 2 32 0 45 -2 12 -4 2 -4 -23z"/>
<path d="M498 1115 c-2 -19 0 -35 4 -35 4 0 8 16 8 35 0 19 -2 35 -4 35 -2 0
-6 -16 -8 -35z"/>
<path d="M288 1093 c6 -2 18 -2 25 0 6 3 1 5 -13 5 -14 0 -19 -2 -12 -5z"/>
<path d="M270 1033 c-14 -3 -29 -9 -35 -15 -7 -8 -4 -9 8 -4 10 3 30 6 43 6
13 0 24 5 24 10 0 6 -3 9 -7 9 -5 -1 -19 -4 -33 -6z"/>
<path d="M38 1023 c7 -3 16 -2 19 1 4 3 -2 6 -13 5 -11 0 -14 -3 -6 -6z"/>
<path d="M570 993 c0 -19 7 -41 15 -49 13 -14 15 -13 15 5 0 12 6 21 13 21 9
0 9 2 -1 8 -7 5 -10 16 -7 24 4 10 -1 17 -14 21 -18 4 -21 1 -21 -30z"/>
<path d="M680 1007 c14 -14 26 -24 28 -22 7 7 -9 25 -31 37 -20 10 -20 9 3
-15z"/>
<path d="M23 993 c-29 -6 -33 -53 -5 -53 14 0 15 -2 2 -10 -39 -24 5 -243 80
-397 l50 -103 460 0 c257 0 460 4 460 9 0 23 -32 34 -85 27 -45 -5 -55 -3 -55
9 0 8 -17 19 -40 26 -36 11 -42 10 -55 -7 -9 -13 -17 -16 -23 -9 -28 28 -102
178 -102 206 0 10 -15 40 -32 66 -18 26 -40 62 -49 78 -9 17 -34 40 -55 52
l-39 23 48 -6 c41 -6 51 -4 72 16 16 15 30 20 44 15 17 -5 20 -3 14 12 -12 31
-43 45 -43 18 0 -10 -10 -15 -31 -15 -25 0 -29 -3 -25 -18 6 -16 -1 -18 -61
-20 -38 0 -81 4 -96 10 -35 14 -42 5 -52 -61 -9 -62 -19 -71 -79 -71 -63 0
-124 35 -181 103 -31 37 -42 44 -56 37 -12 -7 -19 -5 -23 5 -3 8 0 15 7 15 22
0 38 16 31 33 -6 17 -31 20 -81 10z m840 -550 c-7 -2 -19 -2 -25 0 -7 3 -2 5
12 5 14 0 19 -2 13 -5z"/>
<path d="M797 993 c-4 -3 -7 -13 -7 -22 1 -13 3 -13 11 2 11 19 8 33 -4 20z"/>
<path d="M791 934 c0 -11 3 -14 6 -6 3 7 2 16 -1 19 -3 4 -6 -2 -5 -13z"/>
<path d="M1251 898 c0 -13 3 -17 6 -10 2 6 10 9 16 5 7 -4 6 1 -2 10 -18 22
-21 21 -20 -5z"/>
<path d="M695 900 c-3 -5 -1 -10 4 -10 6 0 11 5 11 10 0 6 -2 10 -4 10 -3 0
-8 -4 -11 -10z"/>
<path d="M986 897 c3 -10 9 -15 12 -12 3 3 0 11 -7 18 -10 9 -11 8 -5 -6z"/>
<path d="M238 893 c7 -3 16 -2 19 1 4 3 -2 6 -13 5 -11 0 -14 -3 -6 -6z"/>
<path d="M1048 893 c7 -3 16 -2 19 1 4 3 -2 6 -13 5 -11 0 -14 -3 -6 -6z"/>
<path d="M970 860 c-12 -8 -10 -10 8 -10 13 0 20 4 17 10 -7 12 -6 12 -25 0z"/>
<path d="M1690 790 c0 -11 5 -20 10 -20 6 0 10 9 10 20 0 11 -4 20 -10 20 -5
0 -10 -9 -10 -20z"/>
<path d="M1653 729 c-47 -14 -45 -45 5 -58 53 -15 54 -15 50 26 -3 41 -10 45
-55 32z"/>
</g>
</svg>
